<svg xmlns="http://www.w3.org/2000/svg" version="1.1" xmlns:xlink="http://www.w3.org/1999/xlink" xmlns:svgjs="http://svgjs.dev/svgjs" width="1500" height="939" viewBox="0 0 1500 939"><g transform="matrix(1,0,0,1,-0.9090909090909918,-1.5145161290323017)"><svg viewBox="0 0 396 248" data-background-color="#efefef" preserveAspectRatio="xMidYMid meet" height="939" width="1500" xmlns="http://www.w3.org/2000/svg" xmlns:xlink="http://www.w3.org/1999/xlink"><g id="tight-bounds" transform="matrix(1,0,0,1,0.2400000000000091,0.4000000000000057)"><svg viewBox="0 0 395.52 247.2" height="247.2" width="395.52"><g><svg></svg></g><g><svg viewBox="0 0 395.52 247.2" height="247.2" width="395.52"><g transform="matrix(1,0,0,1,75.54432,95.40772836720134)"><svg viewBox="0 0 244.43135999999998 56.38454326559731" height="56.38454326559731" width="244.43135999999998"><g><svg viewBox="0 0 244.43135999999998 56.38454326559731" height="56.38454326559731" width="244.43135999999998"><g><svg viewBox="0 0 244.43135999999998 56.38454326559731" height="56.38454326559731" width="244.43135999999998"><g><svg viewBox="0 0 244.43135999999998 56.38454326559731" height="56.38454326559731" width="244.43135999999998"><g id="textblocktransform"><svg viewBox="0 0 244.43135999999998 56.38454326559731" height="56.38454326559731" width="244.43135999999998" id="textblock"><g><svg viewBox="0 0 244.43135999999998 56.38454326559731" height="56.38454326559731" width="244.43135999999998"><g transform="matrix(1,0,0,1,0,0)"><svg width="244.43135999999998" viewBox="3.91 -38.38 217.63 50.208688272838" height="56.38454326559731" data-palette-color="#ffffff"><path d="M22.22 0L9.94 0Q7.42 0 6.12-0.63 4.81-1.27 4.36-2.71 3.91-4.15 3.91-6.54L3.91-6.54 3.91-28.47Q3.91-30.91 4.36-32.34 4.81-33.76 6.12-34.39 7.42-35.01 9.94-35.01L9.94-35.01 21.41-35.01Q22-35.01 22.29-34.81L22.29-34.81Q22.92-34.38 23.61-33.76 24.29-33.15 25.05-32.3L25.05-32.3Q25.29-31.98 25.29-31.79L25.29-31.79Q25.29-31.57 25.05-31.3L25.05-31.3Q24.29-30.44 23.61-29.83 22.92-29.22 22.29-28.78L22.29-28.78Q21.95-28.59 21.41-28.59L21.41-28.59 14.58-28.59Q12.96-28.59 12.38-27.91 11.79-27.22 11.79-25.56L11.79-25.56 11.79-20.83 20.56-20.83Q21.14-20.83 21.44-20.63L21.44-20.63Q22.07-20.19 22.75-19.58 23.44-18.97 24.19-18.12L24.19-18.12Q24.44-17.8 24.44-17.6L24.44-17.6Q24.44-17.38 24.19-17.11L24.19-17.11Q23.44-16.26 22.75-15.65 22.07-15.04 21.44-14.6L21.44-14.6Q21.09-14.4 20.56-14.4L20.56-14.4 11.79-14.4 11.79-9.47Q11.79-7.84 12.38-7.13 12.96-6.42 14.58-6.42L14.58-6.42 22.22-6.42Q22.8-6.42 23.1-6.23L23.1-6.23Q23.73-5.79 24.41-5.18 25.1-4.57 25.85-3.71L25.85-3.71Q26.1-3.39 26.1-3.2L26.1-3.2Q26.1-2.98 25.85-2.71L25.85-2.71Q25.1-1.86 24.41-1.25 23.73-0.63 23.1-0.2L23.1-0.2Q22.75 0 22.22 0L22.22 0ZM38.91-1.83L33.81 0.51Q33.3 0.73 33.08 0.73L33.08 0.73Q32.86 0.73 32.61 0.56L32.61 0.56Q32.05 0.17 31.33-1.35 30.61-2.88 30.61-6.05L30.61-6.05 30.61-34.33Q30.61-34.91 30.86-35.23L30.86-35.23Q31.88-36.57 33.86-38.13L33.86-38.13Q34.2-38.38 34.47-38.38L34.47-38.38Q34.79-38.38 35.08-38.13L35.08-38.13Q36.13-37.33 36.85-36.62 37.57-35.91 38.08-35.23L38.08-35.23Q38.33-34.91 38.33-34.33L38.33-34.33 38.33-7.54Q38.33-5.93 38.6-4.8 38.86-3.66 39.23-2.98L39.23-2.98Q39.65-2.17 38.91-1.83L38.91-1.83ZM43.89-33.2L43.89-33.2Q43.89-33.52 44.09-33.76 44.28-34.01 44.6-34.4L44.6-34.4Q45.28-35.18 46.19-36.05 47.09-36.91 48.02-37.72L48.02-37.72Q48.6-38.18 48.9-38.18L48.9-38.18Q49.19-38.18 49.8-37.72L49.8-37.72Q51.78-36.01 53.17-34.4L53.17-34.4Q53.49-34.03 53.69-33.78 53.9-33.52 53.9-33.2L53.9-33.2Q53.9-32.89 53.69-32.64 53.49-32.4 53.14-31.98L53.14-31.98Q52.49-31.23 51.61-30.36 50.73-29.49 49.8-28.71L49.8-28.71Q49.46-28.42 49.26-28.33 49.07-28.25 48.9-28.25L48.9-28.25Q48.73-28.25 48.54-28.33 48.36-28.42 47.97-28.71L47.97-28.71Q46.99-29.49 46.14-30.36 45.28-31.23 44.6-32.03L44.6-32.03Q44.28-32.42 44.09-32.65 43.89-32.89 43.89-33.2ZM52.73-23.71L52.73-1.29Q52.73-0.56 52.42-0.28 52.12 0 51.39 0L51.39 0 46.36 0Q45.62 0 45.32-0.28 45.01-0.56 45.01-1.29L45.01-1.29 45.01-23.71Q45.01-24.44 45.32-24.72 45.62-25 46.36-25L46.36-25 51.39-25Q52.12-25 52.42-24.72 52.73-24.44 52.73-23.71L52.73-23.71ZM58.68-33.11L58.68-33.11Q58.68-33.42 58.87-33.65 59.05-33.89 59.37-34.28L59.37-34.28Q60.05-35.06 60.94-35.9 61.83-36.74 62.74-37.52L62.74-37.52Q63.3-37.99 63.59-37.99L63.59-37.99Q63.88-37.99 64.47-37.52L64.47-37.52Q66.37-35.89 67.79-34.28L67.79-34.28Q68.08-33.91 68.29-33.67 68.5-33.42 68.5-33.11L68.5-33.11Q68.5-32.79 68.29-32.56 68.08-32.32 67.77-31.91L67.77-31.91Q67.11-31.15 66.24-30.32 65.37-29.49 64.47-28.71L64.47-28.71Q64.15-28.42 63.96-28.33 63.76-28.25 63.59-28.25L63.59-28.25Q63.42-28.25 63.24-28.33 63.05-28.42 62.69-28.71L62.69-28.71Q61.71-29.49 60.88-30.33 60.05-31.18 59.37-31.96L59.37-31.96Q59.05-32.35 58.87-32.57 58.68-32.79 58.68-33.11ZM59.71-1.93L59.71-1.93 59.71-23.71Q59.71-24.44 60.01-24.72 60.32-25 61.05-25L61.05-25 66.08-25Q66.81-25 67.12-24.72 67.42-24.44 67.42-23.71L67.42-23.71 67.42-0.44Q67.42 3.34 66.4 5.73 65.37 8.11 63.81 9.48 62.25 10.86 60.64 11.67L60.64 11.67Q59.76 12.11 59.1 11.33L59.1 11.33 56.12 7.69Q55.73 7.23 55.73 6.9 55.73 6.57 56.24 6.23L56.24 6.23Q56.78 5.86 57.6 5.1 58.42 4.35 59.06 2.7 59.71 1.05 59.71-1.93ZM80.53 0.61L80.53 0.61Q76.94 0.61 74.83-1.4 72.72-3.42 72.72-6.96L72.72-6.96Q72.72-8.79 73.39-10.36 74.06-11.94 75.73-13.15 77.41-14.36 80.42-15.09 83.44-15.82 88.12-15.94L88.12-15.94Q88.12-18.16 87.01-19.14 85.9-20.12 83.68-20.12L83.68-20.12Q81.68-20.12 80.41-19.43 79.14-18.75 78.82-18.51L78.82-18.51Q78.48-18.21 77.99-18.29L77.99-18.29Q77.33-18.38 76.59-18.63 75.84-18.87 74.99-19.19L74.99-19.19Q74.87-19.24 74.72-19.35 74.57-19.46 74.55-19.68L74.55-19.68Q74.55-19.8 74.57-19.98 74.6-20.17 74.7-20.65L74.7-20.65Q74.79-21.14 74.99-21.86 75.19-22.58 75.36-22.97L75.36-22.97Q75.58-23.39 76.09-23.75L76.09-23.75Q76.5-24.1 78.6-24.85 80.7-25.61 84.68-25.61L84.68-25.61Q95.64-25.61 95.64-14.94L95.64-14.94 95.64-1.12Q95.64-0.66 95.39-0.33 95.13 0 94.52 0L94.52 0 90.86 0Q90.47 0 90.16-0.11 89.86-0.22 89.59-0.54L89.59-0.54 88.08-2.49 87.91-2.49Q86.78-0.85 84.89-0.12 83 0.61 80.53 0.61ZM83.22-5.05L83.22-5.05Q85.46-5.05 86.61-6.2 87.76-7.35 88.08-8.57L88.08-8.57 88.08-11.28Q84.68-11.28 82.99-10.75 81.29-10.23 80.73-9.39 80.17-8.54 80.17-7.57L80.17-7.57Q80.17-6.15 81.04-5.6 81.92-5.05 83.22-5.05ZM109.95-16.46L109.95-1.29Q109.95-0.56 109.64-0.28 109.34 0 108.61 0L108.61 0 103.58 0Q102.84 0 102.54-0.28 102.23-0.56 102.23-1.29L102.23-1.29 102.23-34.33Q102.23-34.91 102.48-35.23L102.48-35.23Q103.5-36.57 105.48-38.13L105.48-38.13Q105.82-38.38 106.09-38.38L106.09-38.38Q106.41-38.38 106.7-38.13L106.7-38.13Q107.75-37.33 108.47-36.62 109.19-35.91 109.7-35.23L109.7-35.23Q109.95-34.91 109.95-34.33L109.95-34.33 109.95-22.49 110.05-22.49Q110.58-23.19 111.44-23.91 112.29-24.63 113.72-25.12 115.15-25.61 117.37-25.61L117.37-25.61Q119.62-25.61 121.69-24.68 123.77-23.75 125.09-21.56 126.4-19.36 126.4-15.55L126.4-15.55 126.4-1.29Q126.4-0.56 126.1-0.28 125.79 0 125.06 0L125.06 0 120.03 0Q119.3 0 118.99-0.28 118.69-0.56 118.69-1.29L118.69-1.29 118.69-14.21Q118.69-16.92 117.57-18.15 116.44-19.38 114.51-19.38L114.51-19.38Q112.61-19.38 111.56-18.55 110.51-17.72 109.95-16.46L109.95-16.46ZM147.13 0L139.63 0Q137.12 0 135.81-0.63 134.51-1.27 134.05-2.71 133.6-4.15 133.6-6.54L133.6-6.54 133.6-28.47Q133.6-30.91 134.05-32.34 134.51-33.76 135.81-34.39 137.12-35.01 139.63-35.01L139.63-35.01 147.13-35.01Q152.38-35.01 156.32-33.45 160.26-31.88 162.46-28.16 164.66-24.44 164.66-17.94L164.66-17.94Q164.66-11.45 162.46-7.51 160.26-3.56 156.32-1.78 152.38 0 147.13 0L147.13 0ZM145.35-28.59L144.27-28.59Q142.66-28.59 142.07-27.91 141.49-27.22 141.49-25.56L141.49-25.56 141.49-9.45Q141.49-7.81 142.07-7.1 142.66-6.4 144.27-6.4L144.27-6.4 145.4-6.4Q150.62-6.4 153.49-8.96 156.36-11.52 156.36-17.85L156.36-17.85Q156.36-22.07 155.05-24.4 153.74-26.73 151.28-27.66 148.81-28.59 145.35-28.59L145.35-28.59ZM182.4 0.61L182.4 0.61Q178.28 0.61 175.23-0.72 172.17-2.05 170.49-4.86 168.81-7.67 168.81-12.11L168.81-12.11Q168.81-18.77 172.22-22.19 175.64-25.61 181.31-25.61L181.31-25.61Q184.99-25.61 187.54-24.29 190.09-22.97 191.43-20.65 192.76-18.33 192.76-15.36L192.76-15.36Q192.76-12.45 191.27-11.3 189.78-10.16 186.92-10.16L186.92-10.16 176.45-10.16Q176.64-7.64 178.29-6.32 179.94-5 182.77-5L182.77-5Q185.02-5 186.37-5.68 187.73-6.35 188.26-6.74L188.26-6.74Q188.73-7.08 189.31-7.06L189.31-7.06Q189.78-7.06 190.64-6.87 191.51-6.69 192.37-6.2L192.37-6.2Q192.98-5.88 192.98-5.32L192.98-5.32Q192.98-5 192.85-4.42L192.85-4.42Q192.78-4.08 192.61-3.43 192.44-2.78 192.17-2.22L192.17-2.22Q192.02-1.95 191.71-1.71L191.71-1.71Q191.22-1.37 190.13-0.81 189.05-0.24 187.17 0.18 185.29 0.61 182.4 0.61ZM176.4-15.16L176.4-15.16 184.36-15.16Q185.6-15.16 185.6-16.31L185.6-16.31Q185.6-18.04 184.52-19.23 183.43-20.41 181.26-20.41L181.26-20.41Q178.89-20.41 177.78-18.9 176.67-17.38 176.4-15.16ZM203.4-2.27L203.4-2.27Q202.06-4.39 200.75-7.17 199.44-9.94 198.38-12.78 197.32-15.63 196.68-17.98 196.05-20.34 196.05-21.61L196.05-21.61Q196.05-22.09 196.32-22.41L196.32-22.41Q197.44-23.8 199.52-25.32L199.52-25.32Q199.88-25.56 200.18-25.56L200.18-25.56Q200.49-25.56 200.83-25.32L200.83-25.32Q201.96-24.51 202.73-23.8 203.5-23.1 204.03-22.41L204.03-22.41Q204.3-22.09 204.3-21.51L204.3-21.51 204.3-21.63Q204.3-20.04 204.88-17.47 205.45-14.89 206.45-12.04 207.45-9.18 208.77-6.79L208.77-6.79 208.89-6.79Q209.99-8.59 210.84-10.69 211.7-12.79 212.28-14.89 212.87-16.99 213.18-18.75 213.48-20.51 213.48-21.61L213.48-21.61 213.48-21.51Q213.48-22.09 213.73-22.41L213.73-22.41Q214.29-23.1 215.04-23.8 215.8-24.51 216.87-25.32L216.87-25.32Q217.22-25.56 217.51-25.56L217.51-25.56Q217.85-25.56 218.14-25.32L218.14-25.32Q219.24-24.51 220-23.8 220.76-23.1 221.29-22.41L221.29-22.41Q221.54-22.09 221.54-21.56L221.54-21.56Q221.51-20.24 220.85-17.86 220.19-15.48 219.08-12.63 217.97-9.79 216.61-7.04 215.24-4.3 213.82-2.27L213.82-2.27Q212.97-1.03 212.28-0.51 211.6 0 209.92 0L209.92 0 207.33 0Q205.57 0 204.9-0.49 204.23-0.98 203.4-2.27ZM196.05-21.51L196.05-21.63 196.05-21.61Q196.05-21.56 196.05-21.51L196.05-21.51ZM221.54-21.61L221.54-21.61 221.54-21.51 221.54-21.56Q221.54-21.58 221.54-21.61Z" opacity="1" transform="matrix(1,0,0,1,0,0)" fill="#ffffff" class="wordmark-text-0" data-fill-palette-color="primary" id="text-0"></path></svg></g></svg></g></svg></g></svg></g></svg></g></svg></g></svg></g><g><path d="M0 123.6c0-68.262 55.338-123.6 123.6-123.6 56.162 0 103.575 37.457 118.619 88.752l-2.652 0c-14.965-49.872-61.222-86.21-115.967-86.21-66.858 0-121.058 54.199-121.058 121.058 0 66.858 54.199 121.058 121.058 121.058 54.744 0 101.002-36.338 115.967-86.21h2.652c-15.045 51.295-62.458 88.752-118.619 88.752-68.262 0-123.6-55.338-123.6-123.6z" fill="#d94e28" stroke="transparent" data-fill-palette-color="tertiary"></path></g></svg></g><defs></defs></svg><rect width="395.52" height="247.2" fill="none" stroke="none" visibility="hidden"></rect></g></svg></g></svg>